<?xml version="1.0" encoding="UTF-8"?>
<!DOCTYPE svg PUBLIC "-//W3C//DTD SVG 1.1//EN" "http://www.w3.org/Graphics/SVG/1.1/DTD/svg11.dtd">
<!-- Creator: CorelDRAW -->
<svg xmlns="http://www.w3.org/2000/svg" xml:space="preserve" width="512px" height="512px" version="1.1" style="shape-rendering:geometricPrecision; text-rendering:geometricPrecision; image-rendering:optimizeQuality; fill-rule:evenodd; clip-rule:evenodd"
viewBox="0 0 442.94 442.94"
 xmlns:xlink="http://www.w3.org/1999/xlink"
 xmlns:xodm="http://www.corel.com/coreldraw/odm/2003">
 <defs>
  <style type="text/css">
   <![CDATA[
    .fil1 {fill:none}
    .fil0 {fill:#3FA796;fill-rule:nonzero}
   ]]>
  </style>
 </defs>
 <g id="Livello_x0020_1">
  <metadata id="CorelCorpID_0Corel-Layer"/>
  <path class="fil0" d="M115.35 433.71l265.3 0c14.68,0 26.53,-11.85 26.53,-26.53 0,-14.67 -11.85,-26.53 -26.53,-26.53l0 -55.3c15.42,-5.47 26.53,-20.23 26.53,-37.55l0 -238.78c0,-21.97 -17.82,-39.79 -39.79,-39.79l-39.8 0 0 140.44c0,10.37 -8.37,18.74 -18.73,18.74 -4.98,0 -9.79,-1.99 -13.27,-5.47l-34.32 -34.33 -34.33 34.33c-3.48,3.48 -8.29,5.47 -13.26,5.47 -10.37,0 -18.74,-8.37 -18.74,-18.74l0 -140.44 -79.59 0c-43.94,0 -79.59,35.65 -79.59,79.59l0 265.3c0,43.94 35.65,79.59 79.59,79.59zm-26.53 -79.59c0,-14.67 11.85,-26.53 26.53,-26.53l212.24 0 0 53.06 -212.24 0c-14.67,0 -26.53,-11.85 -26.53,-26.53l0 0z"/>
  <rect class="fil1" width="442.94" height="442.94"/>
 </g>
</svg>
